{
	"asset":{
		"generator":"Khronos glTF Blender I/O v3.5.30",
		"version":"2.0"
	},
	"scene":0,
	"scenes":[
		{
			"name":"Scene",
			"nodes":[
				0
			]
		}
	],
	"nodes":[
		{
			"mesh":0,
			"name":"Dog",
			"scale":[
				1.341492772102356,
				1.341492772102356,
				1.341492772102356
			],
			"translation":[
				0,
				3.2610690593719482,
				0
			]
		}
	],
	"materials":[
		{
			"doubleSided":true,
			"name":"Material.002",
			"pbrMetallicRoughness":{
				"baseColorFactor":[
					0.010003303177654743,
					0.00255410629324615,
					0.003680191468447447,
					1
				],
				"metallicFactor":0,
				"roughnessFactor":0.5
			}
		}
	],
	"meshes":[
		{
			"name":"Plane",
			"primitives":[
				{
					"attributes":{
						"POSITION":0,
						"TEXCOORD_0":1,
						"NORMAL":2
					},
					"indices":3,
					"material":0
				}
			]
		}
	],
	"accessors":[
		{
			"bufferView":0,
			"componentType":5126,
			"count":9506,
			"max":[
				2.8848962783813477,
				1.4214321374893188,
				0.6938048005104065
			],
			"min":[
				-2.9665396213531494,
				-2.431979179382324,
				-0.6938047409057617
			],
			"type":"VEC3"
		},
		{
			"bufferView":1,
			"componentType":5126,
			"count":9506,
			"type":"VEC2"
		},
		{
			"bufferView":2,
			"componentType":5126,
			"count":9506,
			"type":"VEC3"
		},
		{
			"bufferView":3,
			"componentType":5123,
			"count":57024,
			"type":"SCALAR"
		}
	],
	"bufferViews":[
		{
			"buffer":0,
			"byteLength":114072,
			"byteOffset":0,
			"target":34962
		},
		{
			"buffer":0,
			"byteLength":76048,
			"byteOffset":114072,
			"target":34962
		},
		{
			"buffer":0,
			"byteLength":114072,
			"byteOffset":190120,
			"target":34962
		},
		{
			"buffer":0,
			"byteLength":114048,
			"byteOffset":304192,
			"target":34963
		}
	],
	"buffers":[
		{
			"byteLength":418240,
			"uri":"data:application/octet-stream;base64,"
		}
	]
}
