{
	"asset":{
		"generator":"Khronos glTF Blender I/O v3.5.30",
		"version":"2.0"
	},
	"scene":0,
	"scenes":[
		{
			"name":"Scene",
			"nodes":[
				0,
				1,
				2,
				3
			]
		}
	],
	"nodes":[
		{
			"name":"Side",
			"rotation":[
				0.7071068286895752,
				0,
				0,
				0.7071068286895752
			],
			"scale":[
				2.6516551971435547,
				2.6516551971435547,
				2.6516551971435547
			],
			"translation":[
				2.6673645973205566,
				-0.2313530445098877,
				-21.573884963989258
			]
		},
		{
			"mesh":0,
			"name":"Dog",
			"scale":[
				1.341492772102356,
				1.341492772102356,
				1.341492772102356
			],
			"translation":[
				0,
				3.2610690593719482,
				0
			]
		},
		{
			"name":"Front",
			"rotation":[
				0.5,
				-0.5,
				0.5,
				0.5
			],
			"scale":[
				2.6516551971435547,
				2.6516551971435547,
				2.6516551971435547
			],
			"translation":[
				11.191841125488281,
				0,
				-1.6194720268249512
			]
		},
		{
			"mesh":1,
			"name":"Grass",
			"scale":[
				11.897690773010254,
				11.897690773010254,
				11.897690773010254
			]
		}
	],
	"materials":[
		{
			"doubleSided":true,
			"name":"Material.002",
			"pbrMetallicRoughness":{
				"baseColorFactor":[
					0.010003303177654743,
					0.00255410629324615,
					0.003680191468447447,
					1
				],
				"metallicFactor":0,
				"roughnessFactor":0.5
			}
		},
		{
			"doubleSided":true,
			"name":"Material.001",
			"pbrMetallicRoughness":{
				"baseColorTexture":{
					"index":0
				},
				"metallicFactor":0,
				"roughnessFactor":0.5
			}
		}
	],
	"meshes":[
		{
			"name":"Plane",
			"primitives":[
				{
					"attributes":{
						"POSITION":0,
						"TEXCOORD_0":1,
						"NORMAL":2
					},
					"indices":3,
					"material":0
				}
			]
		},
		{
			"name":"Plane.001",
			"primitives":[
				{
					"attributes":{
						"POSITION":4,
						"TEXCOORD_0":5,
						"NORMAL":6
					},
					"indices":7,
					"material":1
				}
			]
		}
	],
	"textures":[
		{
			"sampler":0,
			"source":0
		}
	],
	"images":[
		{
			"bufferView":8,
			"mimeType":"image/jpeg",
			"name":"ECO-GRASS-SOFT-TOUCH"
		}
	],
	"accessors":[
		{
			"bufferView":0,
			"componentType":5126,
			"count":329,
			"max":[
				2.8978147506713867,
				1.427194595336914,
				0.7405051589012146
			],
			"min":[
				-2.975501537322998,
				-2.442899465560913,
				0
			],
			"type":"VEC3"
		},
		{
			"bufferView":1,
			"componentType":5126,
			"count":329,
			"type":"VEC2"
		},
		{
			"bufferView":2,
			"componentType":5126,
			"count":329,
			"type":"VEC3"
		},
		{
			"bufferView":3,
			"componentType":5123,
			"count":1782,
			"type":"SCALAR"
		},
		{
			"bufferView":4,
			"componentType":5126,
			"count":4,
			"max":[
				1,
				0,
				1
			],
			"min":[
				-1,
				0,
				-1
			],
			"type":"VEC3"
		},
		{
			"bufferView":5,
			"componentType":5126,
			"count":4,
			"type":"VEC2"
		},
		{
			"bufferView":6,
			"componentType":5126,
			"count":4,
			"type":"VEC3"
		},
		{
			"bufferView":7,
			"componentType":5123,
			"count":6,
			"type":"SCALAR"
		}
	],
	"bufferViews":[
		{
			"buffer":0,
			"byteLength":3948,
			"byteOffset":0,
			"target":34962
		},
		{
			"buffer":0,
			"byteLength":2632,
			"byteOffset":3948,
			"target":34962
		},
		{
			"buffer":0,
			"byteLength":3948,
			"byteOffset":6580,
			"target":34962
		},
		{
			"buffer":0,
			"byteLength":3564,
			"byteOffset":10528,
			"target":34963
		},
		{
			"buffer":0,
			"byteLength":48,
			"byteOffset":14092,
			"target":34962
		},
		{
			"buffer":0,
			"byteLength":32,
			"byteOffset":14140,
			"target":34962
		},
		{
			"buffer":0,
			"byteLength":48,
			"byteOffset":14172,
			"target":34962
		},
		{
			"buffer":0,
			"byteLength":12,
			"byteOffset":14220,
			"target":34963
		},
		{
			"buffer":0,
			"byteLength":284223,
			"byteOffset":14232
		}
	],
	"samplers":[
		{
			"magFilter":9729,
			"minFilter":9987
		}
	],
	"buffers":[
		{
			"byteLength":298456,
			"uri":"data:application/octet-stream;base64,"
		}
	]
}
